<?xml version="1.0" standalone="no"?>
<!DOCTYPE svg PUBLIC "-//W3C//DTD SVG 20010904//EN"
 "http://www.w3.org/TR/2001/REC-SVG-20010904/DTD/svg10.dtd">
<svg version="1.0" xmlns="http://www.w3.org/2000/svg"
 width="1024.000000pt" height="1024.000000pt" viewBox="0 0 1024.000000 1024.000000"
 preserveAspectRatio="xMidYMid meet">
<metadata>
Created by potrace 1.11, written by Peter Selinger 2001-2013
</metadata>
<g transform="translate(0.000000,1024.000000) scale(0.100000,-0.100000)"
fill="#000000" stroke="none">
<path d="M2690 9505 c-47 -7 -101 -16 -120 -21 -19 -4 -37 -8 -40 -9 -3 -1
-18 -4 -35 -8 -16 -4 -39 -9 -50 -11 -11 -2 -38 -11 -60 -19 -38 -14 -61 -22
-77 -26 -20 -5 -180 -87 -233 -119 -214 -129 -453 -370 -578 -580 -99 -167
-181 -394 -202 -558 -4 -27 -11 -67 -15 -89 -12 -52 -12 -5803 0 -5871 4 -28
11 -73 14 -100 7 -62 50 -232 77 -304 38 -104 130 -275 197 -369 121 -171 325
-360 507 -471 80 -49 227 -120 249 -120 8 0 17 -4 20 -9 3 -5 16 -11 28 -14
13 -3 59 -15 103 -27 212 -58 -22 -53 3169 -57 1956 -2 2947 0 2984 7 156 28
283 143 325 293 24 87 20 452 -7 522 -20 54 -57 111 -105 163 -17 18 -31 39
-32 45 0 7 -2 19 -4 27 -13 51 -25 143 -31 237 -15 202 -7 771 10 824 3 8 7
34 10 59 8 78 18 101 60 144 23 22 52 61 64 85 55 105 52 -88 52 3091 0 3133
2 2979 -48 3075 -48 93 -144 174 -247 208 -46 15 -289 16 -2975 15 -2267 0
-2944 -3 -3010 -13z m4602 -2213 c23 -22 23 -27 23 -248 l0 -226 -30 -24 -30
-24 -1858 0 c-1256 0 -1865 3 -1878 10 -44 24 -50 58 -49 275 1 186 3 206 21
229 11 14 29 27 42 29 12 2 858 4 1879 3 l1857 -1 23 -23z m-16 -1091 c41 -25
44 -44 44 -268 0 -201 -7 -235 -56 -253 -16 -6 -722 -10 -1877 -10 -1740 0
-1853 1 -1873 18 -40 32 -44 53 -44 259 0 212 5 237 50 260 20 10 411 13 1875
13 1798 0 1851 -1 1881 -19z m540 -3318 c-26 -182 -26 -782 0 -1021 l4 -42
-2502 2 -2503 3 -64 23 c-112 41 -221 125 -289 224 -110 160 -118 391 -21 564
53 93 170 200 267 241 96 42 40 41 2630 42 l2483 1 -5 -37z"/>
</g>
</svg>
